<svg xmlns="http://www.w3.org/2000/svg" xmlns:xlink="http://www.w3.org/1999/xlink" fill="none" version="1.1" width="180" height="54.758056640625" viewBox="0 0 180 54.758056640625"><g style="mix-blend-mode:passthrough"><g style="mix-blend-mode:passthrough"><g><path d="M29.962378772735597,20.97295379638672C28.628378772735594,22.41059379638672,27.082578772735594,23.64286379638672,25.388578772735595,24.628673796386717C32.05877877273559,28.777303796386718,33.9856787727356,37.38265379638672,29.708278772735596,43.83145379638672C25.430878772735596,50.28035379638672,16.558478772735597,52.16985379638672,9.888318772735595,48.041753796386715C6.9661387727355955,46.213853796386715,4.806262772735596,43.42075379638672,3.8533787727355957,40.175753796386715L3.8745537727355956,41.038353796386716C7.093188772735596,49.95175379638672,17.130278772735593,54.65485379638672,26.320278772735595,51.53315379638671C35.510278772735596,48.41135379638672,40.3594787727356,38.67655379638672,37.140778772735594,29.76311379638672C35.8491787727356,26.12793379638672,33.3080787727356,23.02673379638672,29.962378772735597,20.97295379638672Z" fill="#1F9979" fill-opacity="1"/></g><g><path d="M34.85364046859741,12.88061809539795C33.71024046859741,16.08450809539795,31.88914046859741,19.000868095397948,29.496340468597413,21.46539809539795C37.60644046859741,26.43551809539795,40.041640468597414,36.848218095397954,34.91724046859741,44.71411809539795C30.55514046859741,51.409418095397946,21.97914046859741,54.26421809539795,14.292540468597412,51.55321809539795C21.301540468597413,51.75861809539795,27.145940468597413,46.41881809539795,27.357640468597413,39.62081809539795C27.569440468597413,32.82281809539795,22.063840468597412,27.15441809539795,15.054840468597412,26.94901809539795C8.045850468597411,26.74361809539795,2.201487468597412,32.083418095397946,1.9897349985974122,38.88141809539795C1.8626844685974122,42.68091809539795,3.577880468597412,46.31611809539795,6.584760468597412,48.73951809539795L6.817680468597412,48.98601809539795C9.041080468597412,50.91651809539795,11.624460468597412,52.41581809539795,14.440740468597411,53.40161809539795C26.44714046859741,57.63241809539795,39.85104046859741,51.63541809539795,44.31894046859741,40.01101809539795C48.215240468597415,29.94751809539795,44.25544046859741,18.59012809539795,34.85364046859741,12.88061809539795ZM9.909270468597413,47.77431809539795C5.166020468597412,46.13121809539795,2.709693468597412,41.058418095397954,4.424890468597412,36.478518095397945C6.140080468597412,31.89861809539795,11.349180468597412,29.49571809539795,16.071240468597413,31.15921809539795C20.79334046859741,32.82281809539795,23.270840468597413,37.87511809539795,21.555640468597414,42.455018095397946C19.86164046859741,47.05541809539795,14.652540468597412,49.41731809539795,9.909270468597413,47.77431809539795Z" fill="#43C8A1" fill-opacity="1"/></g><g><path d="M13.636112028121948,31.959854899536133C9.676352028121947,30.583824899536133,5.335432028121948,32.57598389953613,3.9166910281219485,36.41655389953613C2.497952028121948,40.25711389953614,4.551952028121948,44.467393899536134,8.511712028121948,45.84339389953613C12.471482028121947,47.21939389953613,16.812412028121948,45.227293899536136,18.23111202812195,41.38668389953613C19.64991202812195,37.546123899536134,17.595912028121948,33.335883899536135,13.636112028121948,31.959854899536133C13.657312028121948,31.959854899536133,13.657312028121948,31.959854899536133,13.636112028121948,31.959854899536133ZM14.525512028121948,40.81163389953613C13.657312028121948,43.13239389953613,11.010392028121949,44.344093899536134,8.617592028121948,43.52259389953613C6.224792028121948,42.70109389953613,4.975452028121948,40.113353899536136,5.843632028121949,37.79258389953613C6.711822028121948,35.47181389953613,9.35872202812195,34.260083899536134,11.751522028121949,35.08159389953613C14.144312028121949,35.92364389953613,15.393612028121948,38.49086389953613,14.525512028121948,40.81163389953613Z" fill="#1F9979" fill-opacity="1"/></g><g><path d="M8.51169,3.720388578310013Q1.16389,8.094928578310013,0.0416078,12.982948578310014C-0.699525,16.227848578310013,8.55405,28.201448578310014,20.3063,25.736848578310013C27.7388,24.176048578310013,36.9712,14.934048578310012,35.1078,1.1531675783100128C35.0442,0.6397235783100128,34.5572,0.2700439783100128,34.0278,0.35219497831001284C33.8796,0.37273277831001284,33.7526,0.4138080783100128,33.6255,0.4959595783100128C31.5292,1.8103785783100128,27.0824,4.131148578310013,22.932,3.289098578310013C16.1771,1.933598578310013,12.0691,0.6397235783100128,8.51169,3.720388578310013Z" fill="#46DCA5" fill-opacity="1"/></g><g><path d="M4.234043645379257,9.96425C4.232083943989258,15.4668,8.830681213989259,19.9285,14.504041213989257,19.9285C20.17734121398926,19.9285,24.775941213989256,15.4668,24.774041213989257,9.96425C24.775941213989256,4.46171,20.17734121398926,0,14.504041213989257,0C8.830681213989259,5.89549e-7,4.232083943989258,4.46171,4.234043645379257,9.96425Z" fill="#42C7A0" fill-opacity="1"/></g><g><path d="M5.017824780820633,9.922753212890626C5.016277812973633,14.268093212890625,8.647754172973633,17.791393212890625,13.127934172973633,17.791393212890625C17.608124172973632,17.791393212890625,21.239624172973635,14.268093212890625,21.23802417297363,9.922753212890626C21.23802417297363,5.578503212890626,17.60702417297363,2.056793212890625,13.127934172973633,2.056793212890625C8.648844172973632,2.056793212890625,5.017825996513633,5.578503212890626,5.017824780820633,9.922753212890626Z" fill="#FFFFFF" fill-opacity="1"/></g><g><path d="M6.4367594718933105,10.847381530456543C6.4367594718933105,12.027021530456544,7.42272747189331,12.983301530456544,8.638979471893311,12.983301530456544C9.855239471893311,12.983301530456544,10.841209471893311,12.027021530456544,10.841209471893311,10.847381530456543C10.841209471893311,9.667738530456543,9.855239471893311,8.711451530456543,8.638979471893311,8.711451530456543C7.42272747189331,8.711451530456543,6.4367594718933105,9.667738530456543,6.4367594718933105,10.847381530456543Z" fill="#000000" fill-opacity="1"/></g></g><g><path d="M69.5500717163086,22.225465092163084L73.93334171630859,22.225465092163084L73.93334171630859,23.786335092163085C74.9285717163086,23.067515092163084,75.81793171630859,22.554065092163086,76.64377171630859,22.266545092163085C77.44843171630859,21.979015092163085,78.27426171630859,21.835245092163085,79.1212717163086,21.835245092163085C80.8576717163086,21.835245092163085,82.31877171630859,22.369225092163084,83.5256717163086,23.416655092163086C84.54217171630859,24.299775092163088,85.05037171630859,25.634735092163083,85.05037171630859,27.380485092163084L85.05037171630859,37.40288509216309L80.7093717163086,37.40288509216309L80.7093717163086,30.748685092163086C80.7093717163086,28.941285092163085,80.6246717163086,27.729585092163084,80.4341717163086,27.133985092163087C80.2435717163086,26.538385092163086,79.9259717163086,26.086585092163084,79.46007171630859,25.778495092163084C78.9942217163086,25.470435092163086,78.4224917163086,25.306135092163085,77.7448817163086,25.306135092163085C76.8555217163086,25.306135092163085,76.09322171630859,25.573125092163085,75.45796171630859,26.086585092163084C74.8227017163086,26.599985092163088,74.3780217163086,27.318785092163086,74.1450917163086,28.222485092163087C74.01804171630859,28.694885092163084,73.95452171630859,29.72178509216309,73.95452171630859,31.303185092163083L73.95452171630859,37.40288509216309L69.57124911630859,37.40288509216309L69.57124911630859,22.225465092163084L69.5500717163086,22.225465092163084ZM87.97247171630859,16.885645092163085L92.5886717163086,16.885645092163085L98.5389717163086,31.467485092163088L104.57387171630859,16.885645092163085L109.1900717163086,16.885645092163085L100.6776717163086,37.40288509216309L96.33667171630859,37.40288509216309L87.97247171630859,16.885645092163085ZM114.0180717163086,15.981985092163086C114.7803717163086,15.981985092163086,115.43677171630858,16.228438092163085,115.98737171630859,16.700808092163086C116.53787171630859,17.193715092163085,116.8131717163086,17.768775092163086,116.8131717163086,18.467055092163086C116.8131717163086,19.144805092163086,116.53787171630859,19.719855092163087,115.98737171630859,20.212765092163085C115.43677171630858,20.685135092163087,114.80147171630858,20.931585092163086,114.0391717163086,20.931585092163086C113.2557717163086,20.931585092163086,112.59927171630859,20.685135092163087,112.0487717163086,20.192225092163085C111.49817171630859,19.699325092163086,111.22287171630859,19.103725092163085,111.22287171630859,18.405445092163085C111.22287171630859,17.727695092163085,111.49817171630859,17.173175092163085,112.0487717163086,16.680270092163084C112.59927171630859,16.207902092163085,113.2557717163086,15.981985092163086,114.0180717163086,15.981985092163086ZM111.8157717163086,22.225465092163084L116.1990717163086,22.225465092163084L116.1990717163086,37.40288509216309L111.8157717163086,37.40288509216309L111.8157717163086,22.225465092163084ZM130.8734717163086,24.361395092163086L128.1630717163086,26.702685092163087C127.06197171630859,25.757965092163086,126.0667717163086,25.285595092163085,125.15617171630859,25.285595092163085C124.6691717163086,25.285595092163085,124.28797171630859,25.367745092163084,123.99157171630858,25.552585092163085C123.7162717163086,25.737425092163086,123.5680717163086,25.963335092163085,123.5680717163086,26.230285092163086C123.5680717163086,26.435685092163084,123.65277171630859,26.620585092163086,123.8433717163086,26.805385092163085C124.01277171630859,26.969685092163086,124.45737171630859,27.216185092163087,125.15617171630859,27.503685092163085L126.7654717163086,28.201985092163085C128.4595717163086,28.920785092163086,129.62417171630858,29.660085092163087,130.25937171630858,30.41998509216309C130.8946717163086,31.179885092163087,131.21227171630858,32.063085092163085,131.21227171630858,33.06938509216309C131.21227171630858,34.42488509216309,130.64057171630859,35.533985092163086,129.4970717163086,36.43758509216309C128.3536717163086,37.34128509216309,126.82907171630859,37.79308509216308,124.92327171630859,37.79308509216308C122.3822717163086,37.79308509216308,120.3493717163086,36.93048509216308,118.82477171630859,35.20528509216308L121.51407171630859,32.65868509216308C122.0222717163086,33.17208509216309,122.63637171630859,33.60338509216309,123.3139717163086,33.91148509216309C124.01277171630859,34.240085092163085,124.6267717163086,34.38378509216309,125.15617171630859,34.38378509216309C125.72787171630858,34.38378509216309,126.19377171630859,34.26058509216308,126.5537717163086,34.01418509216309C126.91367171630858,33.767685092163084,127.08317171630858,33.50068509216308,127.08317171630858,33.17208509216309C127.08317171630858,32.57648509216308,126.44787171630858,32.021985092163085,125.17737171630858,31.446885092163086L123.6950717163086,30.810285092163085C120.87877171630859,29.577985092163086,119.46007171630859,28.017085092163086,119.46007171630859,26.168685092163088C119.46007171630859,24.977515092163088,119.9894717163086,23.950635092163086,121.04817171630859,23.088045092163085C122.10697171630859,22.246005092163088,123.4833717163086,21.814705092163088,125.1349717163086,21.814705092163088C126.27847171630859,21.814705092163088,127.33727171630859,22.040625092163086,128.3324717163086,22.471915092163087C129.3276717163086,22.923745092163088,130.1958717163086,23.539875092163086,130.8734717163086,24.361395092163086ZM134.6426717163086,22.225465092163084L139.06827171630857,22.225465092163084L139.06827171630857,29.536885092163086C139.06827171630857,30.953985092163087,139.1741717163086,31.939785092163085,139.4070717163086,32.494385092163085C139.6400717163086,33.04888509216309,140.00007171630858,33.48018509216308,140.4870717163086,33.78818509216309C140.9740717163086,34.096285092163086,141.6093717163086,34.240085092163085,142.3292717163086,34.240085092163085C143.0492717163086,34.240085092163085,143.6844717163086,34.096285092163086,144.1926717163086,33.78818509216309C144.7008717163086,33.48018509216308,145.08207171630858,33.04888509216309,145.3361717163086,32.453285092163085C145.5267717163086,32.021985092163085,145.61147171630859,31.077285092163088,145.61147171630859,29.639585092163088L145.61147171630859,22.204925092163087L149.99467171630857,22.204925092163087L149.99467171630857,28.633285092163085C149.99467171630857,31.282585092163085,149.7617717163086,33.08998509216309,149.27477171630858,34.07578509216309C148.6818717163086,35.26698509216308,147.8136717163086,36.17058509216309,146.67017171630857,36.807285092163085C145.5267717163086,37.44398509216309,144.0656717163086,37.772585092163084,142.30807171630858,37.772585092163084C140.4023717163086,37.772585092163084,138.8353717163086,37.40288509216309,137.6495717163086,36.663485092163086C136.4637717163086,35.924185092163086,135.63797171630858,34.876685092163086,135.1508717163086,33.54178509216308C134.8120717163086,32.61758509216308,134.6426717163086,30.953985092163087,134.6426717163086,28.509985092163085L134.6426717163086,22.225465092163084ZM167.2736717163086,22.225465092163084L171.6570717163086,22.225465092163084L171.6570717163086,37.40288509216309L167.2736717163086,37.40288509216309L167.2736717163086,35.800885092163085C166.4266717163086,36.49918509216309,165.5584717163086,37.01268509216308,164.6902717163086,37.32068509216309C163.8221717163086,37.628785092163085,162.8903717163086,37.79308509216308,161.8951717163086,37.79308509216308C159.62947171630861,37.79308509216308,157.6812717163086,37.03318509216309,156.0508717163086,35.51338509216309C154.42037171630858,33.99358509216309,153.5733717163086,32.10408509216309,153.5733717163086,29.844985092163085C153.5733717163086,27.503685092163085,154.3779717163086,25.573125092163085,155.9661717163086,24.073865092163086C157.5542717163086,22.574615092163086,159.50237171630857,21.835255092163088,161.7681717163086,21.835255092163088C162.80577171630858,21.835255092163088,163.8009717163086,21.999555092163085,164.7114717163086,22.348695092163087C165.6220717163086,22.697845092163085,166.4902717163086,23.211285092163088,167.25257171630858,23.889025092163088L167.2736717163086,22.225465092163084ZM162.6786717163086,25.347205092163087C161.32347171630857,25.347205092163087,160.20117171630858,25.757965092163086,159.3117717163086,26.599985092163088C158.4224717163086,27.442085092163087,157.9777717163086,28.509985092163085,157.9777717163086,29.803885092163085C157.9777717163086,31.118285092163084,158.4436717163086,32.18628509216309,159.3541717163086,33.04888509216309C160.2646717163086,33.89088509216309,161.3869717163086,34.32218509216308,162.7210717163086,34.32218509216308C164.0973717163086,34.32218509216308,165.2408717163086,33.91148509216309,166.15137171630857,33.06938509216309C167.0619717163086,32.22738509216309,167.50667171630857,31.138885092163086,167.50667171630857,29.803885092163085C167.50667171630857,28.489485092163086,167.0619717163086,27.42148509216309,166.15137171630857,26.599985092163088C165.19847171630857,25.757965092163086,164.0550717163086,25.347205092163087,162.6786717163086,25.347205092163087ZM175.6170717163086,16.372203092163087L180.00007171630858,16.372203092163087L180.00007171630858,37.42338509216309L175.6170717163086,37.42338509216309L175.6170717163086,16.372203092163087Z" fill="#606060" fill-opacity="1"/></g></g></svg>