<?xml version="1.0" standalone="no"?>
<!DOCTYPE svg PUBLIC "-//W3C//DTD SVG 1.1//EN" "http://www.w3.org/Graphics/SVG/1.1/DTD/svg11.dtd" >
<svg xmlns="http://www.w3.org/2000/svg">
<metadata>Generated by IcoMoon</metadata>
<defs>
<font id="White" horiz-adv-x="1024">
<font-face units-per-em="1024" ascent="960" descent="-64" />
<missing-glyph horiz-adv-x="1024" />
<glyph unicode="&#x20;" horiz-adv-x="512" d="" />
<glyph unicode="&#xe900;" glyph-name="alarm-clock" d="M507.904 103.936c-92.672 2.048-169.984 33.792-231.936 95.744s-93.696 139.264-95.744 231.936c2.048 92.672 33.792 169.984 95.744 231.936s139.264 93.696 231.936 95.744c92.672-2.048 169.984-33.792 231.936-95.744s93.696-139.264 95.744-231.936c-2.048-92.672-33.792-169.984-95.744-231.936s-139.264-93.696-231.936-95.744zM507.904 38.4c111.104 2.56 203.776 40.96 278.016 115.2s112.64 166.912 115.2 278.016c-2.56 111.104-40.96 203.776-115.2 278.016-74.24 73.728-166.912 112.128-278.016 115.2-111.104-2.56-203.776-40.96-278.016-115.2s-112.64-166.912-115.2-278.016c2.56-111.104 40.96-203.776 115.2-278.016s166.912-112.64 278.016-115.2zM733.184 111.104l-57.344-32.768 49.152-84.992c6.656-10.24 16.384-15.36 28.672-15.36s21.504 5.12 27.648 15.872c6.144 10.752 6.656 21.504 1.024 32.256l-49.152 84.992zM282.624 111.104l57.344-32.768-49.152-84.992c-6.656-10.24-16.384-15.36-28.672-15.36s-21.504 5.12-27.648 15.872c-6.144 10.752-6.656 21.504-1.024 32.256l49.152 84.992zM507.904 431.616h-163.84c-9.728 0-17.408-3.072-23.552-9.216s-9.216-13.824-9.216-23.552 3.072-17.408 9.216-23.552c6.144-6.144 13.824-9.216 23.552-9.216h196.608c9.728 0 17.408 3.072 23.552 9.216s9.216 13.824 9.216 23.552v229.376c0 9.728-3.072 17.408-9.216 23.552s-13.824 9.216-23.552 9.216-17.408-3.072-23.552-9.216c-6.144-6.144-9.216-13.824-9.216-23.552v-196.608zM940.032 636.416c20.992 33.28 29.696 69.12 26.112 106.496s-19.968 70.656-48.128 98.816c-28.16 28.16-61.44 44.544-98.816 48.128s-73.216-5.12-106.496-26.112l48.128-48.128c18.944 8.704 38.912 11.776 58.88 8.192s37.376-12.8 52.224-27.648c14.848-14.848 24.064-32.768 27.648-52.736s1.024-39.936-7.68-58.88l47.104-48.128h1.024zM83.968 636.416c-20.992 33.28-29.696 69.12-26.112 106.496s19.456 70.656 47.616 98.816 60.928 44.544 98.816 48.128 73.728-5.12 107.008-26.112l-48.128-48.128c-18.944 8.704-38.912 11.776-58.88 8.192s-37.888-12.8-52.736-27.648c-14.848-14.848-24.064-32.768-27.648-52.736s-0.512-39.936 8.192-58.88l-48.128-48.128z" />
<glyph unicode="&#xe901;" glyph-name="arrow-down" d="M488.448 187.904l-348.16 365.568c-6.144 6.656-9.216 14.336-9.216 22.528s3.072 15.872 9.216 22.528v1.024c6.144 6.144 13.312 9.216 22.016 9.216s15.872-3.072 22.016-9.216l327.68-344.064 327.68 344.064c6.144 6.144 13.312 9.216 22.016 9.216s15.872-3.072 22.016-9.216v-1.024c6.144-6.656 9.216-14.336 9.216-22.528s-3.072-15.872-9.216-22.528l-348.16-365.568c-6.144-6.144-13.824-9.216-23.552-9.216s-17.408 3.072-23.552 9.216z" />
<glyph unicode="&#xe902;" glyph-name="arrow-left" d="M623.104 76.288l-338.944 349.184c-6.144 6.144-9.216 13.312-9.216 22.016s3.072 16.384 9.216 23.040l338.944 349.184c6.144 5.632 13.312 8.192 21.504 8.192s15.36-3.072 21.504-9.216c6.144-6.144 9.216-13.312 9.216-21.504s-3.072-15.36-9.216-21.504l-319.488-327.68 319.488-327.68c6.144-6.144 9.216-13.312 9.216-21.504s-3.072-15.36-9.216-21.504c-6.144-6.144-13.312-9.216-21.504-9.216s-15.36 2.56-21.504 8.192z" />
<glyph unicode="&#xe903;" glyph-name="arrow-right" d="M371.2 45.568c-6.144 6.656-9.216 14.336-9.216 22.528s3.072 15.36 9.216 21.504l319.488 327.68-319.488 327.68c-6.144 6.144-9.216 13.312-9.216 21.504s3.072 15.36 9.216 21.504 13.312 9.216 21.504 9.216c8.192 0 15.36-2.56 21.504-8.192l338.944-349.184c6.144-6.144 9.216-13.824 9.216-22.528s-3.072-16.384-9.216-22.528l-338.944-349.184c-6.144-5.632-13.312-8.192-21.504-8.192s-15.36 3.072-21.504 8.192z" />
<glyph unicode="&#xe904;" glyph-name="arrow-up" d="M839.68 257.024l-327.68 319.488-327.68-319.488c-6.144-6.144-13.312-9.216-21.504-9.216s-15.36 3.072-21.504 9.216c-6.144 6.144-9.216 13.312-9.216 21.504s2.56 14.848 8.192 20.48l349.184 339.968c6.144 6.144 13.824 9.216 22.528 9.216s16.384-3.072 22.528-9.216l349.184-338.944c5.632-6.144 8.192-13.312 8.192-22.016s-3.072-15.872-9.216-21.504c-6.144-5.632-13.312-8.704-21.504-8.704s-15.36 3.072-21.504 9.216z" />
<glyph unicode="&#xe905;" glyph-name="back" d="M200.704 415.232h655.36c9.728 0 17.408 3.072 23.552 9.216s9.216 13.824 9.216 23.552-3.072 17.408-9.216 23.552c-6.144 6.144-13.824 9.216-23.552 9.216h-655.36c-9.728 0-17.408-3.072-23.552-9.216s-9.216-13.824-9.216-23.552 3.072-17.408 9.216-23.552c6.144-6.144 13.824-9.216 23.552-9.216zM214.016 448l272.384 271.36c6.144 6.656 9.216 14.848 9.216 23.552s-3.072 16.384-9.728 23.040c-6.656 6.656-14.336 9.728-23.040 9.728s-16.896-3.072-23.552-9.216l-294.912-294.912c-6.144-6.656-9.216-14.848-9.216-23.552s3.072-16.896 9.216-23.552l294.912-294.912c6.656-6.144 14.848-9.216 23.552-9.216s16.384 3.072 23.040 9.728 9.728 14.336 9.728 23.040-3.072 16.896-9.216 23.552l-272.384 271.36z" />
<glyph unicode="&#xe906;" glyph-name="caret-bottom" d="M838.502 631.859l-327.68-393.216-327.68 393.216z" />
<glyph unicode="&#xe907;" glyph-name="caret-left" d="M714.752 107.571l-393.216 327.68 393.216 327.68z" />
<glyph unicode="&#xe908;" glyph-name="caret-right" d="M706.56 440.064l-393.216-327.68v655.36z" />
<glyph unicode="&#xe909;" glyph-name="caret-top" d="M844.032 238.643h-655.36l327.68 393.216z" />
<glyph unicode="&#xe90a;" glyph-name="check" d="M862.669 716.339c5.986 5.699 14.102 9.208 23.038 9.216h0.002c0.029 0 0.064 0 0.099 0 8.84 0 16.809-3.734 22.414-9.711l0.016-0.017c6.075-5.856 9.939-13.969 10.239-22.985l0.001-0.055c0.020-0.423 0.031-0.92 0.031-1.418 0-8.566-3.324-16.357-8.752-22.152l0.017 0.018-524.288-524.288-262.144 262.093c-6.109 5.966-9.897 14.284-9.897 23.488 0 3.121 0.436 6.14 1.249 9l-0.056-0.231c2.708 11.469 11.571 20.332 22.831 22.998l0.209 0.042c2.828 0.959 6.085 1.512 9.471 1.512 8.787 0 16.704-3.727 22.256-9.686l0.017-0.018 216.064-216.064z" />
<glyph unicode="&#xe90b;" glyph-name="circle-check" d="M231.782 157.235q-111.053 111.155-115.2 278.016 4.147 166.963 115.2 278.016t278.016 115.2q166.963-4.045 278.016-115.2t115.2-278.016q-4.096-166.912-115.2-278.016t-278.016-115.2q-166.758 4.147-278.016 115.2zM833.894 111.155q129.587 129.587 134.656 324.096-5.12 194.56-134.656 324.096t-324.096 134.656q-194.56-5.12-324.096-134.656t-134.502-324.096q5.12-194.56 134.656-324.096t324.096-134.656q194.458 5.171 323.942 134.656zM477.030 317.491l-140.288 141.312c-6.082 5.709-14.289 9.217-23.316 9.217-0.083 0-0.166 0-0.249-0.001h0.013c-17.993-0.256-32.512-14.774-32.768-32.744v-0.024c0-0.052 0-0.114 0-0.176 0-9.046 3.506-17.273 9.234-23.395l-0.018 0.019 163.84-163.84c6.168-5.71 14.451-9.212 23.552-9.212s17.384 3.502 23.575 9.233l-0.023-0.021 294.912 294.912c5.71 6.103 9.216 14.33 9.216 23.376 0 0.062 0 0.124 0 0.186v-0.010c-0.256 17.993-14.774 32.512-32.744 32.768h-0.024c-0.052 0-0.114 0-0.176 0-9.046 0-17.273-3.506-23.395-9.234l0.019 0.018z" />
<glyph unicode="&#xe90c;" glyph-name="circle-close" d="M120.32 448c0 104.96 38.4 197.632 115.2 278.016 80.384 76.8 173.056 115.2 278.016 115.2s197.632-38.4 278.016-115.2c76.8-80.384 115.2-173.056 115.2-278.016s-38.4-197.632-115.2-278.016c-80.384-76.8-173.568-115.2-278.016-115.2-104.96 0-197.632 38.4-278.016 115.2-76.8 80.896-115.2 173.568-115.2 278.016zM513.536-10.24c122.368 0 230.4 44.544 324.608 134.144 89.088 94.208 134.144 202.24 134.144 324.608s-44.544 230.4-134.144 324.608c-94.208 89.088-202.24 134.144-324.608 134.144s-230.4-44.544-324.608-134.144c-89.088-94.72-133.632-202.752-133.632-325.12s44.544-230.4 134.144-324.608c93.696-89.088 201.728-133.632 324.096-133.632v0zM373.248 355.84c-6.144-6.144-9.216-14.848-9.216-23.552 0-17.92 14.848-32.768 32.768-32.768 8.704 0 17.408 3.072 23.552 9.216l92.16 93.184 94.72-95.744c13.312-12.288 34.816-11.776 47.104 1.536 11.776 12.8 11.776 32.768 0 45.568l-95.744 94.72 94.72 93.696c8.704 8.192 11.776 20.992 8.192 32.256-5.12 17.92-23.552 28.16-40.96 23.040-5.12-1.536-10.24-4.096-14.336-8.192l-93.696-94.72-90.624 92.16c-6.144 6.144-14.848 9.216-23.552 9.216-17.92 0-32.768-14.848-32.768-32.768 0-8.704 3.072-17.408 9.216-23.552l91.648-90.624-93.184-92.672z" />
<glyph unicode="&#xe90d;" glyph-name="circle-plus-outline" d="M319.898 458.803c-6.167-5.966-9.995-14.317-9.995-23.561 0-18.097 14.671-32.768 32.768-32.768 0.274 0 0.547 0.003 0.819 0.010l-0.040-0.001h327.68c18.097 0 32.768 14.671 32.768 32.768s-14.671 32.768-32.768 32.768h-327.68c-0.336 0.013-0.73 0.020-1.125 0.020-8.748 0-16.673-3.528-22.429-9.238l0.002 0.002zM483.738 247.859c5.966-6.167 14.317-9.995 23.561-9.995 18.097 0 32.768 14.671 32.768 32.768 0 0.274-0.003 0.547-0.010 0.819l0.001-0.040v327.68c0 18.097-14.671 32.768-32.768 32.768s-32.768-14.671-32.768-32.768v0-327.68c-0.012-0.323-0.018-0.703-0.018-1.085 0-8.761 3.526-16.698 9.237-22.47l-0.003 0.003zM229.274 157.235q-111.155 111.155-115.2 278.016 4.045 166.963 115.2 278.016t278.016 115.2q166.912-4.045 278.016-115.2t115.2-278.016q-4.147-166.912-115.2-278.016t-278.016-115.2q-166.963 4.147-278.016 115.2zM831.386 111.155q129.485 129.587 134.656 324.096-5.12 194.56-134.656 324.096t-324.096 134.656q-194.56-5.12-324.096-134.656t-134.656-324.096q5.12-194.56 134.656-324.096t324.096-134.656q194.509 5.171 324.096 134.656z" />
<glyph unicode="&#xe90e;" glyph-name="close" d="M187.904 172.032c-6.144-6.144-9.216-14.848-9.216-23.552 0-17.92 14.848-32.768 32.768-32.768 8.704 0 17.408 3.072 23.552 9.216l276.48 277.504 278.016-279.040c13.312-12.288 34.816-11.776 47.104 1.536 11.776 12.8 11.776 32.768 0 45.568l-279.040 278.016 276.48 275.456c8.704 8.192 11.776 20.992 8.192 32.256-5.12 17.92-23.552 28.16-40.96 23.040-5.12-1.536-10.24-4.096-14.336-8.192l-275.456-276.48-275.968 277.504c-6.144 6.144-14.848 9.216-23.552 9.216-17.92 0-32.768-14.848-32.768-32.768 0-8.704 3.072-17.408 9.216-23.552l276.992-275.968-277.504-276.992z" />
<glyph unicode="&#xe90f;" glyph-name="copy-document" d="M812.544 811.52c34.816-0.512 62.976-28.672 63.488-63.488v-407.552c-0.512-34.816-28.672-62.976-63.488-63.488h-419.84c-34.816 0.512-62.976 28.672-63.488 63.488v407.552c1.024 34.816 29.184 62.976 64 63.488h419.328zM303.616 837.632c-24.064-23.552-37.376-56.32-37.376-90.112v-407.552c0-70.144 56.832-127.488 127.488-127.488h419.84c70.144 0 127.488 56.832 127.488 127.488v408.064c0 70.144-56.832 126.976-127.488 126.976h-420.352c-33.792 0-66.048-12.8-89.6-37.376zM687.616 158.208c-0.512-34.816-28.672-62.976-63.488-63.488h-419.84c-34.816 0.512-62.976 28.672-63.488 63.488v407.552c0.512 35.328 28.672 63.488 63.488 64v63.488c-33.792 0.512-66.048-13.312-90.112-37.376-24.064-23.552-37.376-56.32-37.376-90.112v-407.552c0-70.144 56.832-127.488 127.488-127.488h419.84c70.144 0 127.488 56.832 127.488 127.488h-64z" />
<glyph unicode="&#xe910;" glyph-name="d-arrow-left" d="M559.104 814.080c6.144-6.656 9.216-14.336 9.216-22.528s-3.072-15.36-9.216-21.504l-319.488-327.68 319.488-327.68c6.144-6.144 9.216-13.312 9.216-21.504s-3.072-15.36-9.216-21.504c-6.144-6.144-13.312-9.216-21.504-9.216s-15.36 2.56-21.504 8.192l-338.944 349.184c-6.144 6.144-9.216 13.824-9.216 22.528s3.072 16.384 9.216 22.528l338.944 349.184c6.144 5.632 13.312 8.192 21.504 8.192s15.36-3.072 21.504-8.192zM824.832 814.080c6.144-6.656 9.216-14.336 9.216-22.528s-3.072-15.36-9.216-21.504l-319.488-327.68 319.488-327.68c6.144-6.144 9.216-13.312 9.216-21.504s-3.072-15.36-9.216-21.504c-6.144-6.144-13.312-9.216-21.504-9.216s-15.36 2.56-21.504 8.192l-338.944 349.184c-6.144 6.144-9.216 13.824-9.216 22.528s3.072 16.384 9.216 22.528l338.944 349.184c6.144 5.632 13.312 8.192 21.504 8.192s15.36-3.072 21.504-8.192z" />
<glyph unicode="&#xe911;" glyph-name="d-arrow-right" d="M473.6 70.656c-6.144 6.656-9.216 14.336-9.216 22.528s3.072 15.36 9.216 21.504l319.488 327.68-319.488 327.68c-6.144 6.144-9.216 13.312-9.216 21.504s3.072 15.36 9.216 21.504 13.312 9.216 21.504 9.216 15.36-2.56 21.504-8.192l338.944-349.184c6.144-6.144 9.216-13.824 9.216-22.528s-3.072-16.384-9.216-22.528l-338.944-349.184c-6.144-5.632-13.312-8.192-21.504-8.192s-15.36 3.072-21.504 8.192zM207.872 70.656c-6.144 6.656-9.216 14.336-9.216 22.528s3.072 15.36 9.216 21.504l319.488 327.68-319.488 327.68c-6.144 6.144-9.216 13.312-9.216 21.504s3.072 15.36 9.216 21.504 13.312 9.216 21.504 9.216 15.36-2.56 21.504-8.192l338.944-349.184c6.144-6.144 9.216-13.824 9.216-22.528s-3.072-16.384-9.216-22.528l-338.944-349.184c-6.144-5.632-13.312-8.192-21.504-8.192s-15.36 3.072-21.504 8.192z" />
<glyph unicode="&#xe912;" glyph-name="delete-solid" d="M92.16 767.59c-18.097 0-32.768-14.671-32.768-32.768s14.671-32.768 32.768-32.768h851.968c18.097 0 32.768 14.671 32.768 32.768s-14.671 32.768-32.768 32.768h-262.144v98.304c0.016 0.374 0.025 0.813 0.025 1.254 0 17.419-14.121 31.539-31.539 31.539-0.441 0-0.88-0.009-1.316-0.027l0.063 0.002h-262.144c-0.374 0.016-0.813 0.025-1.254 0.025-17.419 0-31.539-14.121-31.539-31.539 0-0.441 0.009-0.88 0.027-1.316l-0.002 0.063v-98.304zM419.84 833.126h196.608v-65.536h-196.608zM845.824-18.842c0.374-0.016 0.813-0.025 1.254-0.025 17.419 0 31.539 14.121 31.539 31.539 0 0.441-0.009 0.88-0.027 1.316l0.002-0.063v688.128h-720.896v-688.128c-0.016-0.374-0.025-0.813-0.025-1.254 0-17.419 14.121-31.539 31.539-31.539 0.441 0 0.88 0.009 1.316 0.027l-0.063-0.002zM396.288 186.88c-5.708 5.754-9.236 13.678-9.236 22.427 0 0.396 0.007 0.79 0.022 1.182l-0.002-0.057v327.68c0 18.097 14.671 32.768 32.768 32.768s32.768-14.671 32.768-32.768v-327.68c-0.325-18.158-15.121-32.753-33.326-32.753-8.922 0-17.025 3.505-23.007 9.214l0.013-0.012zM592.896 186.88c-5.708 5.754-9.236 13.678-9.236 22.427 0 0.396 0.007 0.79 0.022 1.182l-0.002-0.057v327.68c0 18.097 14.671 32.768 32.768 32.768s32.768-14.671 32.768-32.768v-327.68c-0.325-18.158-15.121-32.753-33.326-32.753-8.922 0-17.025 3.505-23.007 9.214l0.013-0.012z" />
<glyph unicode="&#xe913;" glyph-name="document-add" d="M852.634 46.694h-655.36v786.432h393.216v-262.246h262.144zM656.026 636.518v169.882l169.984-169.984zM140.954 889.446c-5.708-5.754-9.236-13.678-9.236-22.427 0-0.396 0.007-0.79 0.022-1.182l-0.002 0.057v-851.968c-0.016-0.374-0.025-0.813-0.025-1.254 0-17.419 14.121-31.539 31.539-31.539 0.441 0 0.88 0.009 1.316 0.027l-0.063-0.002h720.896c0.374-0.016 0.813-0.025 1.254-0.025 17.419 0 31.539 14.121 31.539 31.539 0 0.441-0.009 0.88-0.027 1.316l0.002-0.063v622.592l-262.144 262.042h-491.52c-0.365 0.015-0.794 0.024-1.225 0.024-8.699 0-16.583-3.488-22.331-9.141l0.004 0.004zM361.114 374.374v-65.536h131.072v-131.072h65.536v131.072h131.072v65.536h-131.072v131.072h-65.536v-131.072z" />
<glyph unicode="&#xe914;" glyph-name="download" d="M139.366 101.427c-6.167-5.966-9.995-14.317-9.995-23.561 0-18.097 14.671-32.768 32.768-32.768 0.274 0 0.547 0.003 0.819 0.010l-0.040-0.001h720.896c18.097 0 32.768 14.671 32.768 32.768s-14.671 32.768-32.768 32.768h-720.896c-0.323 0.012-0.703 0.018-1.085 0.018-8.761 0-16.698-3.526-22.47-9.237l0.003 0.003zM556.134 831.539h-65.536v-467.968l-248.832 248.832-46.080-46.080 324.608-324.608 324.506 324.608-47.104 46.080-241.664-241.664z" />
<glyph unicode="&#xe915;" glyph-name="edit" d="M407.962 662.067l198.656-114.688-229.376-397.312-198.656 114.688zM336.282 98.867l-148.48-47.104-33.792 151.552zM499.098 819.763l198.656-114.688-58.368-100.352-198.656 114.637zM139.674-32.205l253.952 79.872 393.216 680.96-312.32 180.173-393.216-680.96zM933.274-32.205v65.485h-458.752v-65.536z" />
<glyph unicode="&#xe916;" glyph-name="edit-outline" d="M825.958 98.355h-655.36v655.36h327.68c0.374-0.016 0.813-0.025 1.254-0.025 17.419 0 31.539 14.121 31.539 31.539 0 0.441-0.009 0.88-0.027 1.316l0.002-0.063c0.016 0.374 0.025 0.813 0.025 1.254 0 17.419-14.121 31.539-31.539 31.539-0.441 0-0.88-0.009-1.316-0.027l0.063 0.002h-360.448c-0.374 0.016-0.813 0.025-1.254 0.025-17.419 0-31.539-14.121-31.539-31.539 0-0.441 0.009-0.88 0.027-1.316l-0.002 0.063v-720.896c-0.016-0.374-0.025-0.813-0.025-1.254 0-17.419 14.121-31.539 31.539-31.539 0.441 0 0.88 0.009 1.316 0.027l-0.063-0.002h720.896c0.374-0.016 0.813-0.025 1.254-0.025 17.419 0 31.539 14.121 31.539 31.539 0 0.441-0.009 0.88-0.027 1.316l0.002-0.063v360.448c0 18.097-14.671 32.768-32.768 32.768s-32.768-14.671-32.768-32.768v0zM462.438 437.299l332.8 331.776c5.934 5.782 14.051 9.347 23.001 9.347 15.087 0 27.807-10.132 31.727-23.963l0.056-0.232c0.782-2.579 1.231-5.542 1.231-8.611 0-8.94-3.819-16.988-9.914-22.602l-0.022-0.020-331.776-332.8-54.272-7.168zM818.278 843.827c-0.134 0.001-0.293 0.001-0.451 0.001-26.859 0-51.156-10.966-68.66-28.664l-339.977-339.977c-5.244-4.545-8.693-11.041-9.211-18.347l-0.005-0.085-15.36-107.52c-0.243-1.5-0.382-3.228-0.382-4.989 0-9.049 3.668-17.241 9.598-23.171v0c5.643-6.223 13.76-10.115 22.785-10.115 1.717 0 3.401 0.141 5.041 0.412l-0.178-0.024 107.52 15.36c7.688 1.374 14.355 5.031 19.45 10.234l338.95 338.95c17.716 17.669 28.678 42.104 28.678 69.099 0 0.367-0.002 0.734-0.006 1.1v-0.056c0.006 0.407 0.010 0.887 0.010 1.368 0 26.572-10.983 50.579-28.658 67.729l-0.024 0.023c-17.512 17.707-41.81 28.673-68.669 28.673-0.159 0-0.317 0-0.476-0.001h0.024z" />
<glyph unicode="&#xe917;" glyph-name="error" d="M185.702 762.419q-129.382-129.587-134.502-324.096 5.12-194.56 134.656-324.096t324.096-134.656q194.56 5.12 324.096 134.656t134.656 324.096q-5.12 194.56-134.656 324.096t-324.096 134.656q-194.662-5.171-324.25-134.656zM616.294 600.115c7.061 7.53 17.056 12.237 28.151 12.288h0.009c21.59-0.449 38.975-17.834 39.423-39.382l0.001-0.042c-0.038-11.106-4.748-21.105-12.266-28.14l-0.022-0.020-106.496-106.496 106.496-106.496c6.98-6.9 11.302-16.474 11.302-27.058 0-3.861-0.575-7.588-1.645-11.099l0.071 0.269c-3.112-13.549-13.587-24.024-26.895-27.089l-0.241-0.047c-3.242-0.999-6.969-1.574-10.83-1.574-10.584 0-20.159 4.322-27.055 11.298l-106.5 106.5-106.496-106.496c-7.055-7.54-17.054-12.25-28.153-12.288h-0.007c-21.59 0.449-38.975 17.834-39.423 39.382l-0.001 0.042c0.051 11.104 4.758 21.099 12.267 28.14l0.021 0.020 106.496 106.496-106.342 106.496c-7.54 7.055-12.25 17.054-12.288 28.153v0.007c0.449 21.59 17.834 38.975 39.382 39.423l0.042 0.001c11.106-0.038 21.105-4.748 28.14-12.266l0.020-0.022 106.496-106.496z" />
<glyph unicode="&#xe918;" glyph-name="full-screen" d="M89.958 861.235v-262.144c-0.016-0.374-0.025-0.813-0.025-1.254 0-17.419 14.121-31.539 31.539-31.539 0.441 0 0.88 0.009 1.316 0.027l-0.063-0.002c0.374-0.016 0.813-0.025 1.254-0.025 17.419 0 31.539 14.121 31.539 31.539 0 0.441-0.009 0.88-0.027 1.316l0.002-0.063v196.608h196.608c0.323-0.012 0.703-0.018 1.085-0.018 8.761 0 16.698 3.526 22.47 9.237l-0.003-0.003c5.7 5.668 9.228 13.515 9.228 22.185 0 0.301-0.004 0.6-0.013 0.899l0.001-0.044c0.007 0.255 0.012 0.554 0.012 0.855 0 8.671-3.528 16.518-9.226 22.184l-0.001 0.001c-6.099 5.995-14.342 9.825-23.475 10.237l-0.077 0.003h-262.144zM352.102 9.267c9.21 0.415 17.453 4.245 23.557 10.245l-0.005-0.005c5.7 5.985 9.206 14.103 9.206 23.040s-3.507 17.055-9.219 23.054l0.013-0.014c-5.769 5.708-13.706 9.234-22.467 9.234-0.381 0-0.761-0.007-1.139-0.020l0.055 0.002h-196.608v196.608c0.016 0.374 0.025 0.813 0.025 1.254 0 17.419-14.121 31.539-31.539 31.539-0.441 0-0.88-0.009-1.316-0.027l0.063 0.002c-0.374 0.016-0.813 0.025-1.254 0.025-17.419 0-31.539-14.121-31.539-31.539 0-0.441 0.009-0.88 0.027-1.316l-0.002 0.063v-262.144h262.144zM679.782 861.235c-9.21-0.415-17.453-4.245-23.557-10.245l0.005 0.005c-5.7-5.668-9.228-13.515-9.228-22.185 0-0.301 0.004-0.6 0.013-0.899l-0.001 0.044c-0.007-0.255-0.012-0.554-0.012-0.855 0-8.671 3.528-16.518 9.226-22.184l0.001-0.001c5.754-5.708 13.678-9.236 22.427-9.236 0.396 0 0.79 0.007 1.182 0.022l-0.057-0.002h196.608v-196.608c0-18.097 14.671-32.768 32.768-32.768s32.768 14.671 32.768 32.768v262.144h-262.144zM942.080 9.267v262.144c0 18.097-14.671 32.768-32.768 32.768s-32.768-14.671-32.768-32.768v-196.608h-196.608c-0.336 0.013-0.73 0.020-1.125 0.020-8.748 0-16.673-3.528-22.429-9.238l0.002 0.002c-5.711-5.98-9.226-14.099-9.226-23.040s3.515-17.060 9.238-23.053l-0.012 0.013c6.099-5.995 14.342-9.825 23.475-10.237l0.077-0.003h262.144z" />
<glyph unicode="&#xe919;" glyph-name="link" d="M810.035 411.699q76.8 80.947 83.456 179.2t-59.904 168.96q-70.656 66.56-168.96 59.904t-179.2-83.456l-92.16-92.16 46.080-47.104 93.133 93.184q60.416 57.344 132.096 64t122.88-40.448q47.053-51.2 40.448-122.88t-64-132.096l-93.184-93.184 47.104-46.080zM578.611 273.459l-93.184-93.184q-60.467-57.293-132.147-64t-122.88 40.448q-47.053 51.2-40.448 122.88t64 132.096l93.184 93.184-47.104 46.080-92.16-92.16q-76.8-80.896-83.456-179.2t59.904-168.96q70.656-66.56 168.96-59.904t179.2 83.456l92.16 92.16zM347.187 319.539l46.080-46.080 277.453 277.504-46.080 46.080z" />
<glyph unicode="&#xe91a;" glyph-name="loading" d="M479.232 644.608h65.536v196.608h-65.536v-196.608zM479.232 54.784h65.536v196.608h-65.536v-196.608zM315.392 415.232v65.536h-196.608v-65.536h196.608zM905.216 415.232v65.536h-196.608v-65.536h196.608zM350.208 563.712l46.080 46.080-139.264 139.264-46.080-46.080 139.264-139.264zM766.976 146.944l46.080 46.080-139.264 139.264-46.080-46.080 139.264-139.264zM813.056 702.976l-46.080 46.080-139.264-139.264 46.080-46.080 139.264 139.264zM396.288 286.208l-46.080 46.080-139.264-139.264 46.080-46.080 139.264 139.264z" />
<glyph unicode="&#xe91b;" glyph-name="lock" d="M819.866 500.787c0.374 0.016 0.813 0.025 1.254 0.025 17.419 0 31.539-14.121 31.539-31.539 0-0.441-0.009-0.88-0.027-1.316l0.002 0.063v-393.216c0.016-0.374 0.025-0.813 0.025-1.254 0-17.419-14.121-31.539-31.539-31.539-0.441 0-0.88 0.009-1.316 0.027l0.063-0.002h-589.824c-0.374-0.016-0.813-0.025-1.254-0.025-17.419 0-31.539 14.121-31.539 31.539 0 0.441 0.009 0.88 0.027 1.316l-0.002-0.063v393.216c-0.016 0.374-0.025 0.813-0.025 1.254 0 17.419 14.121 31.539 31.539 31.539 0.441 0 0.88-0.009 1.316-0.027l-0.063 0.002zM160.41 537.651c-17.716-17.715-28.673-42.189-28.673-69.222 0-0.144 0-0.288 0.001-0.432v0.022-393.216c-0.001-0.122-0.001-0.266-0.001-0.41 0-54.066 43.829-97.894 97.894-97.894 0.144 0 0.289 0 0.433 0.001h589.802c0.122-0.001 0.266-0.001 0.41-0.001 54.066 0 97.894 43.829 97.894 97.894 0 0.144 0 0.289-0.001 0.433v-0.022 393.216c0.001 0.122 0.001 0.266 0.001 0.41 0 54.066-43.829 97.894-97.894 97.894-0.144 0-0.289 0-0.433-0.001h-589.802c-0.122 0.001-0.266 0.001-0.41 0.001-27.033 0-51.507-10.957-69.222-28.673v0zM501.402 393.267c-5.708-5.754-9.236-13.678-9.236-22.427 0-0.396 0.007-0.79 0.022-1.182l-0.002 0.057v-196.608c0-18.097 14.671-32.768 32.768-32.768s32.768 14.671 32.768 32.768v196.608c-0.325 18.158-15.121 32.753-33.326 32.753-8.922 0-17.025-3.505-23.007-9.214l0.013 0.012zM328.346 566.323v65.536q1.997 84.019 57.344 139.264t139.264 57.344q83.917-1.997 139.264-57.344t57.344-139.264v-65.536zM339.61 817.203q-73.728-73.728-76.8-185.344v-131.072h524.288v131.072q-3.072 111.667-76.8 185.344t-185.344 76.8q-111.667-3.072-185.344-76.8z" />
<glyph unicode="&#xe91c;" glyph-name="minus" d="M93.133 428.288c-6.167 5.966-9.995 14.317-9.995 23.561 0 18.097 14.671 32.768 32.768 32.768 0.274 0 0.547-0.003 0.819-0.010l-0.040 0.001h786.432c18.097 0 32.768-14.671 32.768-32.768s-14.671-32.768-32.768-32.768h-786.432c-0.323-0.012-0.703-0.018-1.085-0.018-8.761 0-16.698 3.526-22.47 9.237l0.003-0.003z" />
<glyph unicode="&#xe91d;" glyph-name="n-date" d="M903.782 570.88v65.638h-786.432v131.072h131.072v-32.87c0-18.097 14.671-32.768 32.768-32.768s32.768 14.671 32.768 32.768v0 32.768h393.216v-32.768c0-18.097 14.671-32.768 32.768-32.768s32.768 14.671 32.768 32.768v32.768h131.072v-720.896h-786.432v524.288zM313.958 865.894c0 18.097-14.671 32.768-32.768 32.768s-32.768-14.671-32.768-32.768v0-32.768h-163.84c-0.374 0.016-0.813 0.025-1.254 0.025-17.419 0-31.539-14.121-31.539-31.539 0-0.441 0.009-0.88 0.027-1.316l-0.002 0.063v-786.432c-0.016-0.374-0.025-0.813-0.025-1.254 0-17.419 14.121-31.539 31.539-31.539 0.441 0 0.88 0.009 1.316 0.027l-0.063-0.002h851.968c0.374-0.016 0.813-0.025 1.254-0.025 17.419 0 31.539 14.121 31.539 31.539 0 0.441-0.009 0.88-0.027 1.316l0.002-0.063v786.432c0.016 0.374 0.025 0.813 0.025 1.254 0 17.419-14.121 31.539-31.539 31.539-0.441 0-0.88-0.009-1.316-0.027l0.063 0.002h-163.84v32.768c0 18.097-14.671 32.768-32.768 32.768s-32.768-14.671-32.768-32.768v-32.768h-393.216zM257.638 430.694c-6.167-5.966-9.995-14.317-9.995-23.561 0-18.097 14.671-32.768 32.768-32.768 0.274 0 0.547 0.003 0.819 0.010l-0.040-0.001h65.536c18.097 0 32.768 14.671 32.768 32.768s-14.671 32.768-32.768 32.768h-65.536c-0.336 0.013-0.73 0.020-1.125 0.020-8.748 0-16.673-3.528-22.429-9.238l0.002 0.002zM257.638 234.086c-6.167-5.966-9.995-14.317-9.995-23.561 0-18.097 14.671-32.768 32.768-32.768 0.274 0 0.547 0.003 0.819 0.010l-0.040-0.001h65.536c18.097 0 32.768 14.671 32.768 32.768s-14.671 32.768-32.768 32.768h-65.536c-0.336 0.013-0.73 0.020-1.125 0.020-8.748 0-16.673-3.528-22.429-9.238l0.002 0.002zM454.246 430.694c-6.167-5.966-9.995-14.317-9.995-23.561 0-18.097 14.671-32.768 32.768-32.768 0.274 0 0.547 0.003 0.819 0.010l-0.040-0.001h65.536c18.097 0 32.768 14.671 32.768 32.768s-14.671 32.768-32.768 32.768h-65.536c-0.336 0.013-0.73 0.020-1.125 0.020-8.748 0-16.673-3.528-22.429-9.238l0.002 0.002zM454.246 234.086c-6.167-5.966-9.995-14.317-9.995-23.561 0-18.097 14.671-32.768 32.768-32.768 0.274 0 0.547 0.003 0.819 0.010l-0.040-0.001h65.536c18.097 0 32.768 14.671 32.768 32.768s-14.671 32.768-32.768 32.768h-65.536c-0.336 0.013-0.73 0.020-1.125 0.020-8.748 0-16.673-3.528-22.429-9.238l0.002 0.002zM650.854 430.694c-6.167-5.966-9.995-14.317-9.995-23.561 0-18.097 14.671-32.768 32.768-32.768 0.274 0 0.547 0.003 0.819 0.010l-0.040-0.001h65.536c18.097 0 32.768 14.671 32.768 32.768s-14.671 32.768-32.768 32.768h-65.536c-0.336 0.013-0.73 0.020-1.125 0.020-8.748 0-16.673-3.528-22.429-9.238l0.002 0.002zM650.854 234.086c-6.167-5.966-9.995-14.317-9.995-23.561 0-18.097 14.671-32.768 32.768-32.768 0.274 0 0.547 0.003 0.819 0.010l-0.040-0.001h65.536c18.097 0 32.768 14.671 32.768 32.768s-14.671 32.768-32.768 32.768h-65.536c-0.336 0.013-0.73 0.020-1.125 0.020-8.748 0-16.673-3.528-22.429-9.238l0.002 0.002z" />
<glyph unicode="&#xe91e;" glyph-name="picture-outline" d="M876.39 812.288v-720.896h-720.896v720.896zM99.174 868.608c-5.708-5.769-9.234-13.706-9.234-22.467 0-0.381 0.007-0.761 0.020-1.139l-0.002 0.055v-786.432c-0.016-0.374-0.025-0.813-0.025-1.254 0-17.419 14.121-31.539 31.539-31.539 0.441 0 0.88 0.009 1.316 0.027l-0.063-0.002h786.432c0.374-0.016 0.813-0.025 1.254-0.025 17.419 0 31.539 14.121 31.539 31.539 0 0.441-0.009 0.88-0.027 1.316l0.002-0.063v786.432c0.016 0.374 0.025 0.813 0.025 1.254 0 17.419-14.121 31.539-31.539 31.539-0.441 0-0.88-0.009-1.316-0.027l0.063 0.002h-786.278c-0.368 0.015-0.799 0.024-1.233 0.024-8.764 0-16.703-3.529-22.475-9.242l0.003 0.003zM319.334 615.68v0q0-65.587 65.536-65.536v0q65.69 0 65.69 65.536v0q0 65.536-65.536 65.536v0q-65.638 0-65.69-65.536zM403.302 366.848c4.758 6.929 12.228 11.7 20.846 12.785l0.146 0.015c1.152 0.142 2.485 0.223 3.837 0.223 7.648 0 14.691-2.588 20.303-6.935l-0.076 0.057 126.976-102.4c16.5-13.186 37.667-21.159 60.697-21.159 4.051 0 8.044 0.247 11.966 0.726l-0.471-0.047c26.938 2.342 50.34 15.768 65.893 35.635l0.155 0.205 221.184 276.48-51.2 40.96-221.184-276.48c-5.462-6.371-13.153-10.696-21.851-11.76l-0.165-0.016c-1.165-0.146-2.514-0.229-3.882-0.229-7.634 0-14.664 2.591-20.257 6.941l0.074-0.056-128 103.424c-15.99 12.143-36.229 19.453-58.176 19.453-4.945 0-9.804-0.371-14.55-1.087l0.534 0.066c-26.669-2.967-49.655-16.675-64.856-36.633l-0.168-0.231-221.184-288.768 51.2-39.936z" />
<glyph unicode="&#xe91f;" glyph-name="plus" d="M905.728 480.768h-360.96v360.96c0 17.92-14.848 32.768-32.768 32.768s-32.768-14.848-32.768-32.768v-360.96h-359.936c-9.216 0-17.92-3.584-24.576-10.24-12.8-12.8-12.288-33.792 1.024-46.080 6.144-6.144 14.848-9.728 23.552-9.216h359.936v-359.936c0-9.216 3.584-17.92 10.24-24.576 12.8-12.8 33.792-12.288 46.080 1.024 6.144 6.144 9.728 14.848 9.216 23.552v359.936h360.96c17.92 0 32.768 14.848 32.768 32.768s-14.848 32.768-32.768 32.768z" />
<glyph unicode="&#xe920;" glyph-name="refresh-left" d="M249.856 729.6v51.2c0.512 8.704-3.072 17.408-9.216 23.552-12.8 12.288-33.28 12.288-46.080 0-6.144-6.144-9.728-14.848-10.24-23.552v-152.576c1.024-17.408 15.36-31.744 32.768-32.768h152.576c8.704 0.512 17.408 4.096 23.552 10.24 12.288 12.8 12.288 33.28 0 46.080-6.144 6.144-14.848 9.728-23.552 9.216h-95.232c53.248 56.32 116.224 90.112 187.904 101.888s141.824 0 209.408-35.328c67.072-36.864 115.2-88.576 144.384-155.648s35.328-137.728 17.408-212.992c-19.968-73.728-58.368-133.12-116.224-177.664s-124.928-67.584-201.216-69.12c-92.672 2.048-169.984 33.792-231.424 95.744s-93.696 139.264-96.256 231.936h-65.536c2.56-111.104 40.96-203.776 115.2-278.016s166.912-112.64 278.016-115.2c111.104 2.56 203.776 40.96 278.016 115.2s112.64 166.912 115.2 278.016c0 76.288-22.016 151.040-63.488 215.040s-100.864 114.176-171.008 144.384c-69.632 31.232-147.456 40.96-222.72 28.16-75.264-12.288-145.408-46.592-202.24-97.792z" />
<glyph unicode="&#xe921;" glyph-name="refresh-right" d="M580.352 827.597c-19.39 3.416-41.716 5.369-64.497 5.369-57.281 0-111.679-12.346-160.677-34.523l2.454 0.994c-71.182-31.12-129.394-80.771-170.107-142.919l-0.901-1.465c-39.799-60.384-63.489-134.447-63.489-214.043 0-0.35 0-0.7 0.001-1.050v0.054q4.045-166.912 115.2-278.016t278.016-115.2q166.912 4.096 278.016 115.2t115.2 278.016h-65.536q-4.147-139.213-96.256-231.936t-231.424-95.744q-114.739 2.099-201.216 69.12t-116.224 177.664q-26.624 112.64 17.408 212.992t144.384 155.648q101.376 53.197 209.408 35.328t187.904-101.888h-95.232c-0.336 0.013-0.73 0.020-1.125 0.020-8.748 0-16.673-3.528-22.429-9.238l0.002 0.002c-5.711-5.98-9.226-14.099-9.226-23.040s3.515-17.060 9.238-23.053l-0.012 0.013c6.099-5.995 14.342-9.825 23.475-10.237l0.077-0.003h152.576c17.582 1.225 31.543 15.186 32.762 32.657l0.006 0.111v152.371c-0.415 9.21-4.245 17.453-10.245 23.557l0.005-0.005c-5.985 5.7-14.103 9.206-23.040 9.206s-17.055-3.507-23.054-9.219l0.014 0.013c-5.708-5.754-9.236-13.678-9.236-22.427 0-0.396 0.007-0.79 0.022-1.182l-0.002 0.057v-51.2c-54.625 49.628-123.537 84.46-199.859 97.656l-2.381 0.341z" />
<glyph unicode="&#xe922;" glyph-name="remove-outline" d="M155.904 14.080c-0.016-0.374-0.025-0.813-0.025-1.254 0-17.419 14.121-31.539 31.539-31.539 0.441 0 0.88 0.009 1.316 0.027l-0.063-0.002h655.36c0.374-0.016 0.813-0.025 1.254-0.025 17.419 0 31.539 14.121 31.539 31.539 0 0.441-0.009 0.88-0.027 1.316l0.002-0.063v688.128h65.536c18.097 0 32.768 14.671 32.768 32.768s-14.671 32.768-32.768 32.768v0h-262.144v98.304c0.016 0.374 0.025 0.813 0.025 1.254 0 17.419-14.121 31.539-31.539 31.539-0.441 0-0.88-0.009-1.316-0.027l0.063 0.002h-262.144c-0.374 0.016-0.813 0.025-1.254 0.025-17.419 0-31.539-14.121-31.539-31.539 0-0.441 0.009-0.88 0.027-1.316l-0.002 0.063v-98.304h-262.144c-18.097 0-32.768-14.671-32.768-32.768s14.671-32.768 32.768-32.768h65.536zM418.048 767.744v65.536h196.608v-65.536zM221.44 702.208h589.824v-655.36h-589.824zM441.6 187.136c5.708 5.754 9.236 13.678 9.236 22.427 0 0.396-0.007 0.79-0.022 1.182l0.002-0.057v327.68c0 18.097-14.671 32.768-32.768 32.768s-32.768-14.671-32.768-32.768v-327.68c0.325-18.158 15.121-32.753 33.326-32.753 8.922 0 17.025 3.505 23.007 9.214l-0.013-0.012zM638.208 187.136c5.708 5.754 9.236 13.678 9.236 22.427 0 0.396-0.007 0.79-0.022 1.182l0.002-0.057v327.68c0 18.097-14.671 32.768-32.768 32.768s-32.768-14.671-32.768-32.768v-327.68c0.325-18.158 15.121-32.753 33.326-32.753 8.922 0 17.025 3.505 23.007 9.214l-0.013-0.012z" />
<glyph unicode="&#xe923;" glyph-name="right" d="M548.966 723.2c-5.709 6.082-9.217 14.289-9.217 23.316 0 0.083 0 0.166 0.001 0.249v-0.013c0.256 17.993 14.774 32.512 32.744 32.768h0.024c0.070 0.001 0.153 0.001 0.236 0.001 9.027 0 17.234-3.507 23.334-9.234l-0.018 0.017 294.81-294.912c5.71-6.168 9.212-14.451 9.212-23.552s-3.502-17.384-9.233-23.575l0.021 0.023-294.912-294.912c-6.082-5.709-14.289-9.217-23.316-9.217-0.083 0-0.166 0-0.249 0.001h0.013c-17.993 0.256-32.512 14.774-32.768 32.744v0.024c0 0.052 0 0.114 0 0.176 0 9.046 3.506 17.273 9.234 23.395l-0.018-0.019 239.616 238.592h-609.28c-18.097 0-32.768 14.671-32.768 32.768s14.671 32.768 32.768 32.768h609.28z" />
<glyph unicode="&#xe924;" glyph-name="search" d="M918.886 488.96q-9.677 165.888-135.68 287.744-132.096 116.736-297.984 113.664t-292.864-124.928q-121.805-127.027-124.928-292.864t113.664-297.984q121.907-125.952 287.744-135.68t302.080 101.888l128-128c5.996-5.682 14.106-9.185 23.034-9.216h0.006c17.589 0.55 31.706 14.667 32.255 32.205l0.001 0.051c-0.031 8.934-3.534 17.044-9.23 23.055l0.014-0.015-128 128q111.667 136.090 101.888 302.080zM238.438 209.408q-101.376 101.376-105.472 254.976 4.147 153.6 105.472 254.976t254.976 105.472q153.6-4.147 254.976-105.472t105.472-254.976q-4.045-153.6-105.472-254.976t-254.976-105.472q-153.6 3.942-254.976 105.37z" />
<glyph unicode="&#xe925;" glyph-name="s-finance" d="M916.019 445.286v163.84h-786.432v-557.056h786.432v163.84h-212.992c-63.34 0-114.688 51.348-114.688 114.688s51.348 114.688 114.688 114.688v0zM770.099 296.294c8.558 8.879 13.83 20.976 13.83 34.304s-5.272 25.425-13.844 34.319l0.015-0.015c-8.791 8.866-20.858 14.471-34.234 14.846l-0.070 0.002h-32.768c-13.444-0.389-25.508-5.991-34.301-14.845l-0.003-0.003c-8.558-8.879-13.83-20.976-13.83-34.304s5.272-25.425 13.844-34.319l-0.015 0.015c8.796-8.857 20.86-14.459 34.232-14.846l0.072-0.002h32.768c13.446 0.377 25.513 5.982 34.301 14.844l0.003 0.004zM391.731 674.662h393.216l-131.072 163.84z" />
<glyph unicode="&#xe926;" glyph-name="s-fold" d="M909.158 641.894h-786.278v131.072h786.432zM909.158 379.75h-524.288v131.072h524.288zM909.158 117.606h-786.278v131.072h786.432zM319.334 314.214l-196.454 131.072 196.608 131.072z" />
<glyph unicode="&#xe927;" glyph-name="s-ticket" d="M647.987 283.085h65.536v-163.84h262.144v196.608c-72.389 0-131.072 58.683-131.072 131.072s58.683 131.072 131.072 131.072v196.608h-262.144v-163.84h-65.536v163.84h-589.824v-196.608c0.158 0.001 0.345 0.001 0.532 0.001 36.026 0 68.622-14.683 92.131-38.392l0.009-0.009c23.726-23.713 38.401-56.478 38.401-92.672s-14.676-68.959-38.401-92.671l-0.001-0.001c-23.455-23.716-55.997-38.402-91.97-38.402-0.247 0-0.494 0.001-0.74 0.002h0.038v-196.608h589.824zM713.523 545.28v-196.608h-65.536v196.608z" />
<glyph unicode="&#xe928;" glyph-name="success" d="M186.982 771.021q-129.587-129.587-134.656-324.096 5.12-194.56 134.656-324.096t324.096-134.656q194.56 5.12 324.096 134.656t134.656 324.096q-5.12 194.56-134.656 324.096t-324.096 134.656q-194.611-5.12-324.096-134.656zM695.398 597.453c6.689 7.009 16.104 11.367 26.537 11.367 3.869 0 7.598-0.599 11.099-1.71l-0.26 0.071c13.888-3.012 24.636-13.76 27.605-27.412l0.043-0.236c1.040-3.241 1.639-6.97 1.639-10.839 0-10.433-4.358-19.847-11.353-26.523l-269.428-269.326c-7.127-6.963-16.886-11.258-27.648-11.258s-20.521 4.296-27.656 11.266l0.008-0.007-130.048 130.048c-6.947 7.137-11.239 16.889-11.264 27.643v0.005c0.009 10.695 4.527 20.334 11.756 27.117l0.020 0.019c6.908 7.261 16.642 11.777 27.432 11.777 0.076 0 0.152 0 0.228-0.001h-0.012c10.923-0.014 20.842-4.302 28.177-11.28l-0.017 0.016 101.376-101.376z" />
<glyph unicode="&#xe929;" glyph-name="s-unfold" d="M115.763 643.533h786.432v131.072h-786.432zM115.763 381.389h524.237v131.072h-524.237zM115.763 119.245h786.432v131.072h-786.432zM705.587 315.853l196.608 131.072-196.608 163.84z" />
<glyph unicode="&#xe92a;" glyph-name="time" d="M512 109.056c-95.744 2.048-176.128 34.816-240.128 99.328-64 64-96.768 144.384-99.328 240.128 2.048 95.744 34.816 176.128 99.328 240.128s144.384 96.256 240.128 98.816c95.744-2.048 176.128-34.816 240.128-99.328s96.768-144.384 99.328-240.128c-2.048-95.744-34.816-176.128-99.328-240.128-64-64-144.384-96.768-240.128-98.816zM512 40.96c115.2 2.56 210.944 42.496 287.744 119.296s116.736 172.544 119.296 287.744c-2.56 115.2-42.496 210.944-119.296 287.744-76.8 76.288-172.544 116.224-287.744 119.296-115.2-2.56-210.944-42.496-287.744-119.296s-116.736-172.544-119.296-287.744c2.56-115.2 42.496-210.944 119.296-287.744s172.544-116.736 287.744-119.296zM512 448h-169.472c-10.24 0-17.92-3.072-24.576-9.728-6.144-6.144-9.728-14.336-9.728-24.576s3.072-17.92 9.728-24.576c6.144-6.144 14.336-9.728 24.576-9.728h203.776c10.24 0 17.92 3.072 24.576 9.728 6.144 6.144 9.728 14.336 9.728 24.576v237.568c0 10.24-3.072 17.92-9.728 24.576-6.144 6.144-14.336 9.728-24.576 9.728s-17.92-3.072-24.576-9.728c-6.144-6.144-9.728-14.336-9.728-24.576v-203.264z" />
<glyph unicode="&#xe92b;" glyph-name="top" d="M544.768 731.648v-653.312c0-9.728-3.072-17.408-9.216-23.552s-13.824-9.216-23.552-9.216c-9.728 0-17.408 3.072-23.552 9.216s-9.216 13.824-9.216 23.552v653.312l-238.592-253.952c-6.656-6.656-14.848-10.24-23.552-10.24s-16.384 3.584-23.040 10.752c-6.656 7.168-9.728 15.36-9.728 24.064s3.072 16.896 9.216 24.576l294.912 313.344c6.656 6.656 14.848 10.24 23.552 10.24s16.896-3.584 23.552-10.24l294.912-313.344c6.144-7.68 9.216-15.872 9.216-24.576s-3.072-16.896-9.728-24.064-14.336-10.752-23.040-10.752-16.896 3.584-23.552 10.24l-238.592 253.952z" />
<glyph unicode="&#xe92c;" glyph-name="unlock" d="M542.72 386.048v-196.608c0-17.92-14.848-32.768-32.768-32.768s-32.768 14.848-32.768 32.768v196.608c-0.512 8.704 3.072 17.408 9.216 23.552 6.144 5.632 13.824 9.216 22.528 9.216 18.432 0.512 33.28-14.336 33.792-32.768zM903.168 484.352v-393.216c0-0.512 0-0.512 0-1.024 0-54.272-44.032-97.792-98.304-97.28h-589.824c-0.512 0-0.512 0-1.024 0-54.272 0-97.792 44.032-97.28 98.304v393.216c0 26.112 10.24 51.2 28.672 69.632s43.52 28.672 69.632 28.672h34.816v65.536c1.536 64 21.504 119.808 59.904 166.912s89.6 77.312 153.088 91.136c59.392 11.264 121.344 1.536 174.592-27.648 6.144-3.584 12.8-7.168 18.432-11.264l-48.64-48.128c-0.512 0-0.512 0.512-1.024 0.512-39.936 22.016-86.528 29.184-131.072 20.48-92.672-16.896-160.256-98.304-159.744-192.512v-65.536h489.472c0.512 0 0.512 0 1.024 0 53.76 0.512 97.28-43.52 97.28-97.792zM837.632 486.912c-0.512 17.408-15.36 30.72-32.768 30.208h-589.824c-1.024 0-1.536 0-2.56 0-17.408-0.512-30.72-15.36-30.208-32.768v-393.216c0-1.024 0-1.536 0-2.56 0.512-17.408 15.36-30.72 32.768-30.208h589.824c1.024 0 1.536 0 2.56 0 17.408 0.512 30.72 15.36 30.208 32.768v393.216c0 1.024 0 1.536 0 2.56z" />
<glyph unicode="&#xe92d;" glyph-name="upload" d="M126.31 110.080c-6.167-5.966-9.995-14.317-9.995-23.561 0-18.097 14.671-32.768 32.768-32.768 0.274 0 0.547 0.003 0.819 0.010l-0.040-0.001h720.896c18.097 0 32.768 14.671 32.768 32.768s-14.671 32.768-32.768 32.768h-720.896c-0.336 0.013-0.73 0.020-1.125 0.020-8.748 0-16.673-3.528-22.429-9.238l0.002 0.002zM784.742 469.504l47.104 46.080-324.608 324.608-324.608-324.608 46.080-46.080 248.832 248.832v-467.968h65.536v460.8z" />
<glyph unicode="&#xe92e;" glyph-name="user" d="M371.302 491.264q-55.296 55.296-57.344 139.264 2.099 83.917 57.344 139.264t139.264 57.088q83.968-2.048 139.264-57.344t57.344-139.264q-2.099-83.968-57.344-139.264t-139.264-57.344q-83.917 2.304-139.264 57.6zM695.91 445.184q73.728 73.728 76.8 185.344-3.072 111.565-76.8 185.344t-185.344 76.8q-111.565-3.072-185.344-76.8t-76.8-185.344q3.072-111.616 76.8-185.344t185.344-76.8q111.616 2.816 185.344 76.8zM847.462 17.152c5.966-6.167 14.317-9.995 23.561-9.995 18.097 0 32.768 14.671 32.768 32.768 0 0.274-0.003 0.547-0.010 0.819l0.001-0.040v98.304q-2.099 69.632-48.128 115.712t-115.712 48.128h-458.752q-69.683-2.099-115.712-48.128t-48.128-115.712v-98.304c-0.016-0.374-0.025-0.813-0.025-1.254 0-17.419 14.121-31.539 31.539-31.539 0.441 0 0.88 0.009 1.316 0.027l-0.063-0.002c0.374-0.016 0.813-0.025 1.254-0.025 17.419 0 31.539 14.121 31.539 31.539 0 0.441-0.009 0.88-0.027 1.316l0.002-0.063v98.304c-0.001 0.122-0.001 0.266-0.001 0.41 0 54.066 43.829 97.894 97.894 97.894 0.144 0 0.289 0 0.433-0.001h458.73c0.122 0.001 0.266 0.001 0.41 0.001 54.066 0 97.894-43.829 97.894-97.894 0-0.144 0-0.289-0.001-0.433v0.022-98.304c-0.013-0.336-0.020-0.73-0.020-1.125 0-8.748 3.528-16.673 9.238-22.429l-0.002 0.002z" />
<glyph unicode="&#xe92f;" glyph-name="warning" d="M198.707 774.4q-129.485-129.536-134.656-324.096 5.12-194.56 134.656-324.096t324.096-134.656q194.56 5.12 324.096 134.656t134.656 324.096q-5.12 194.56-134.656 324.096t-324.096 134.4q-194.509-5.12-324.096-134.4zM566.835 692.992c9.705-10.531 15.656-24.651 15.656-40.162 0-2.084-0.107-4.144-0.317-6.172l0.021 0.254-23.552-262.144c-1.035-9.194-5.358-17.222-11.745-23.013l-0.031-0.027c-6.472-5.413-14.884-8.699-24.064-8.699s-17.592 3.287-24.123 8.748l0.059-0.048c-6.381 5.844-10.692 13.858-11.759 22.866l-0.017 0.174-23.552 262.144c-0.179 1.737-0.282 3.754-0.282 5.794 0 15.547 5.943 29.707 15.682 40.33l-0.040-0.044c10.931 11.976 26.607 19.46 44.032 19.46s33.101-7.484 43.99-19.413l0.042-0.046zM485.427 203.52c-9.18 8.931-14.876 21.404-14.876 35.207 0 0.583 0.010 1.163 0.030 1.741l-0.002-0.084c0 28.843 23.381 52.224 52.224 52.224s52.224-23.381 52.224-52.224v0c0.020-0.519 0.031-1.128 0.031-1.74 0-13.777-5.698-26.224-14.866-35.111l-0.013-0.012c-9.597-9.497-22.801-15.363-37.376-15.363s-27.779 5.867-37.381 15.368l0.005-0.005z" />
<glyph unicode="&#xe930;" glyph-name="zoom-in" d="M918.426 483.379q-9.728 165.888-135.68 287.744-132.096 116.736-297.984 113.664t-292.864-124.928q-121.856-126.925-124.928-292.864t113.664-297.984q121.805-125.952 287.744-135.68t302.080 101.888l128-128c5.986-5.699 14.102-9.208 23.038-9.216h0.002c17.589 0.55 31.706 14.667 32.255 32.205l0.001 0.051c-0.008 8.938-3.517 17.054-9.229 23.054l0.013-0.014-128 128q111.565 136.243 101.888 302.080zM237.978 203.827q-101.376 101.376-105.472 254.976 4.096 153.6 105.472 254.976t254.976 105.472q153.6-4.096 254.976-105.472t105.472-254.976q-4.147-153.6-105.472-254.976t-254.976-105.472q-153.6 4.147-254.976 105.472zM361.882 491.571c-18.097 0-32.768-14.671-32.768-32.768s14.671-32.768 32.768-32.768h98.304v-98.304c0-18.097 14.671-32.768 32.768-32.768s32.768 14.671 32.768 32.768v0 98.304h98.304c18.097 0 32.768 14.671 32.768 32.768s-14.671 32.768-32.768 32.768h-98.304v98.304c0 18.097-14.671 32.768-32.768 32.768s-32.768-14.671-32.768-32.768v-98.304z" />
<glyph unicode="&#xe931;" glyph-name="zoom-out" d="M924.006 486.451q-9.677 165.888-135.68 287.744-132.096 116.736-297.984 113.664t-292.864-124.928q-121.805-126.976-124.928-292.864t113.664-297.984q121.907-125.952 287.744-135.68t302.080 101.888l128-128c5.996-5.682 14.106-9.185 23.034-9.216h0.006c17.589 0.55 31.706 14.667 32.255 32.205l0.001 0.051c-0.008 8.938-3.517 17.054-9.229 23.054l0.013-0.014-128 128q111.667 136.243 101.888 302.080zM243.558 206.899q-101.376 101.376-105.472 254.976 4.147 153.6 105.472 254.976t254.976 105.472q153.6-4.096 254.976-105.472t105.472-254.976q-4.045-153.6-105.472-254.976t-254.976-105.472q-153.6 4.147-254.976 105.472zM343.91 485.427c-6.167-5.966-9.995-14.317-9.995-23.561 0-18.097 14.671-32.768 32.768-32.768 0.274 0 0.547 0.003 0.819 0.010l-0.040-0.001h262.298c18.097 0 32.768 14.671 32.768 32.768s-14.671 32.768-32.768 32.768h-262.298c-0.323 0.012-0.703 0.018-1.085 0.018-8.761 0-16.698-3.526-22.47-9.237l0.003 0.003z" />
</font>
</defs>
</svg>
