<?xml version="1.0" encoding="utf-8"?>
<!-- Generator: Adobe Illustrator 25.0.0, SVG Export Plug-In . SVG Version: 6.00 Build 0)  -->
<svg version="1.1" id="Ebene_1" xmlns="http://www.w3.org/2000/svg" xmlns:xlink="http://www.w3.org/1999/xlink" x="0px" y="0px"
	 viewBox="0 0 201.3 39.7" style="enable-background:new 0 0 201.3 39.7;" xml:space="preserve">
<style type="text/css">
	.st0{fill:#0096B6;}
	.st1{fill:#E72410;}
</style>
<g>
	<g>
		<polygon class="st0" points="39.4,19.8 40.6,21.1 27.1,34.6 25.9,33.4 39.4,19.8 		"/>
		<polygon class="st0" points="18.5,3.9 19.8,5.1 13.6,11.2 12.4,10 18.5,3.9 		"/>
		<polygon class="st0" points="2.6,19.8 19.8,37 18.5,38.3 1.3,21.1 2.6,19.8 		"/>
		<polygon class="st0" points="21,1.4 34.5,14.9 33.3,16.2 19.8,2.6 21,1.4 		"/>
		<polygon class="st0" points="5,17.4 8.7,21.1 7.5,22.3 3.8,18.6 5,17.4 		"/>
	</g>
	<g>
		<polygon class="st1" points="22.2,10 23.4,8.8 35.7,21.1 34.5,22.3 22.2,10 		"/>
		<polygon class="st1" points="19.8,12.5 21,11.2 29.6,19.8 28.4,21.1 19.8,12.5 		"/>
		<polygon class="st1" points="9.9,17.4 18.5,8.8 19.8,10 11.2,18.6 9.9,17.4 		"/>
		<polygon class="st1" points="19.8,34.6 28.4,26 29.6,27.2 21,35.8 19.8,34.6 		"/>
		<path class="st1" d="M62,19.9c0,2.9-2,4.6-5,4.6h-2.1v-9.3H57C60,15.2,62,16.9,62,19.9L62,19.9L62,19.9z M67.2,19.7
			c0-5.3-3.8-9-10.3-9h-7v18.2h6.9C63.3,28.9,67.2,25,67.2,19.7L67.2,19.7L67.2,19.7z"/>
		<polygon class="st1" points="85.4,15.2 90.8,15.2 90.8,28.9 95.9,28.9 95.9,15.2 101.3,15.2 101.3,10.7 85.4,10.7 85.4,15.2 		"/>
		<polygon class="st1" points="139.5,17.4 135.7,10.7 130.4,10.7 130,10.7 125.1,10.7 122,21.3 118.5,10.7 114.1,10.7 110.6,21.3 
			107.4,10.7 102.1,10.7 108.2,29.1 112.6,29.1 116.2,18.6 119.9,29.1 124.3,29.1 130.2,11.2 136.9,22.1 136.9,28.9 142,28.9 
			142,22 148.9,10.7 143.2,10.7 139.5,17.4 		"/>
		<polygon class="st1" points="155.3,10.7 150.2,10.7 150.2,28.9 164.1,28.9 164.1,24.5 155.3,24.5 155.3,10.7 		"/>
		<polygon class="st1" points="171,21.8 179.8,21.8 179.8,17.8 171,17.8 171,15 180.7,15 180.7,10.7 166,10.7 166,28.9 180.8,28.9 
			180.8,24.7 171,24.7 171,21.8 		"/>
		<path class="st1" d="M194.3,17.3c0,1.3-1,2.2-2.7,2.2h-3.3v-4.4h3.3C193.2,15.1,194.3,15.8,194.3,17.3L194.3,17.3L194.3,17.3z
			 M195.6,22.6c2.3-1,3.7-2.8,3.7-5.6V17c0-1.8-0.5-3.2-1.6-4.2c-1.2-1.2-3.1-2-5.9-2h-8.6v18.2h5v-5.5h2.2h0.1l3.7,5.5h5.8
			L195.6,22.6L195.6,22.6z"/>
		<polygon class="st1" points="79.4,10.6 74.6,10.6 72.6,15.2 81.3,15.2 79.4,10.6 		"/>
		<polygon class="st1" points="77.1,16.9 79,21.8 74.9,21.8 76.8,16.9 71.9,16.9 66.8,28.9 72.1,28.9 73.4,25.7 80.4,25.7 
			81.8,28.9 87.2,28.9 82.1,16.9 77.1,16.9 		"/>
	</g>
</g>
</svg>
