<?xml version="1.0" encoding="utf-8"?>
<!-- Generator: Adobe Illustrator 25.0.0, SVG Export Plug-In . SVG Version: 6.00 Build 0)  -->
<svg version="1.1" id="图层_1" xmlns="http://www.w3.org/2000/svg" xmlns:xlink="http://www.w3.org/1999/xlink" x="0px" y="0px"
	 viewBox="0 0 200 200" style="enable-background:new 0 0 200 200;" xml:space="preserve">
<style type="text/css">
	.st0{fill:#FFFFFF;}
</style>
<g transform="matrix(1 0 0 1 -582 -13 )">
	<path class="st0" d="M618.7,127.6l58.7-67.5c2.4-2.8,6.7-2.8,9.1,0l58.7,67.5c3.5,4,0.7,10.2-4.6,10.4H623.3
		C618.1,137.8,615.3,131.6,618.7,127.6z M744.6,151.4H619.4c-1.2,0-2.2,1-2.2,2.2v12.1c0,1.2,1,2.2,2.2,2.4h125.2
		c1.2-0.2,2.2-1.2,2.2-2.4v-12.1C746.8,152.3,745.8,151.4,744.6,151.4z"/>
</g>
</svg>
