<svg xmlns="http://www.w3.org/2000/svg" xmlns:xlink="http://www.w3.org/1999/xlink" fill="none" version="1.1" width="58" height="58" viewBox="0 0 58 58"><g><g><path d="M29,0C45.24,0,58,12.76,58,29C58,45.24,45.24,58,29,58C12.76,58,0,45.24,0,29C0,12.76,12.76,0,29,0Z" fill="#00B578" fill-opacity="1"/></g><g><path d="M38,41L20,41L20,38.7143C20,35.5584,22.5184,33,25.625,33L32.375,33C35.4816,33,38,35.5584,38,38.7143L38,41ZM29,30.7143C25.27208,30.7143,22.25,27.644199999999998,22.25,23.85714C22.25,20.070050000000002,25.27208,17,29,17C32.7279,17,35.75,20.070050000000002,35.75,23.85714C35.75,27.644199999999998,32.7279,30.7143,29,30.7143Z" fill="#FFFFFF" fill-opacity="1" style="mix-blend-mode:passthrough"/></g></g></svg>