<svg xmlns="http://www.w3.org/2000/svg" xmlns:xlink="http://www.w3.org/1999/xlink" fill="none" version="1.1" width="28" height="33.74951171875" viewBox="0 0 28 33.74951171875"><defs><linearGradient x1="0.5060030817985535" y1="-1.0184677839279175" x2="0.4996034516180273" y2="1.0226034980382446" id="master_svg0_128_04933"><stop offset="0%" stop-color="#021F42" stop-opacity="1"/><stop offset="5.3137630224227905%" stop-color="#021F42" stop-opacity="1"/><stop offset="100%" stop-color="#0AA7FF" stop-opacity="1"/></linearGradient><linearGradient x1="0.5060030817985535" y1="-1.018467664718628" x2="0.44554611875268085" y2="1.0211497598355082" id="master_svg1_182_33086"><stop offset="0%" stop-color="#021F42" stop-opacity="1"/><stop offset="5.3137630224227905%" stop-color="#021F42" stop-opacity="1"/><stop offset="100%" stop-color="#60C6FF" stop-opacity="1"/></linearGradient><linearGradient x1="0.5" y1="0" x2="0.5" y2="1" id="master_svg2_182_33260"><stop offset="0%" stop-color="#00223A" stop-opacity="1"/><stop offset="100%" stop-color="#006AAD" stop-opacity="1"/></linearGradient><linearGradient x1="0.5060030221939087" y1="-1.0184677839279175" x2="0.5060026900537644" y2="1.2899656295775974" id="master_svg3_128_04918"><stop offset="0%" stop-color="#021F42" stop-opacity="1"/><stop offset="5.3137630224227905%" stop-color="#021F42" stop-opacity="1"/><stop offset="100%" stop-color="#0AA7FF" stop-opacity="1"/></linearGradient><linearGradient x1="0.5060030221939087" y1="-1.0184677839279175" x2="0.5006017838239629" y2="1.2714877497970396" id="master_svg4_128_04921"><stop offset="0%" stop-color="#021F42" stop-opacity="1"/><stop offset="5.3137630224227905%" stop-color="#021F42" stop-opacity="1"/><stop offset="100%" stop-color="#0AA7FF" stop-opacity="1"/></linearGradient><linearGradient x1="0.5" y1="0" x2="0.5" y2="1" id="master_svg5_182_33012"><stop offset="0%" stop-color="#CCEAFF" stop-opacity="1"/><stop offset="100%" stop-color="#0092ED" stop-opacity="1"/></linearGradient></defs><g><g><g><path d="M4.543555224547163,22.246599197387695C4.543555224547163,22.246599197387695,13.895772924547163,24.745120797387695,13.895772924547163,24.745120797387695C13.895772924547163,24.745120797387695,13.895772924547163,26.208406697387694,13.895772924547163,26.208406697387694C13.895772924547163,26.208406697387694,4.543555224547163,23.709891397387697,4.543555224547163,23.709891397387697C4.543555224547163,23.709891397387697,4.543555224547163,22.246599197387695,4.543555224547163,22.246599197387695Z" fill="url(#master_svg0_128_04933)" fill-opacity="1"/></g><g><path d="M13.895633697509766,24.745120797387695C13.895633697509766,24.745120797387695,23.247851397509766,22.246599197387695,23.247851397509766,22.246599197387695C23.247851397509766,22.246599197387695,23.247851397509766,23.709891397387697,23.247851397509766,23.709891397387697C23.247851397509766,23.709891397387697,13.895633697509766,26.208406697387694,13.895633697509766,26.208406697387694C13.895633697509766,26.208406697387694,13.895633697509766,24.745120797387695,13.895633697509766,24.745120797387695Z" fill="url(#master_svg1_182_33086)" fill-opacity="1"/></g><g transform="matrix(0.6385056376457214,0.7696171402931213,-0.6385056376457214,0.7696171402931213,12.026526721171194,-8.167405185446114)"><path d="M19.598174097509766,16.670859339208985C19.598174097509766,16.670859339208985,28.546354697509766,10.968318939208984,28.546354697509766,10.968318939208984C28.546354697509766,10.968318939208984,22.843815797509766,19.916501039208985,22.843815797509766,19.916501039208985C22.843815797509766,19.916501039208985,13.895633697509766,25.619039939208985,13.895633697509766,25.619039939208985C13.895633697509766,25.619039939208985,19.598174097509766,16.670859339208985,19.598174097509766,16.670859339208985Z" fill="url(#master_svg2_182_33260)" fill-opacity="1"/></g></g><g><g><path d="M0.003505638800561428,16.879030227661133C0.003505638800561428,16.879030227661133,13.999981638800561,20.61829542766113,13.999981638800561,20.61829542766113C13.999981638800561,20.61829542766113,13.999981638800561,22.80825182766113,13.999981638800561,22.80825182766113C13.999981638800561,22.80825182766113,0.003505638800561428,19.068988127661132,0.003505638800561428,19.068988127661132C0.003505638800561428,19.068988127661132,0.003505638800561428,16.879030227661133,0.003505638800561428,16.879030227661133C0.003505638800561428,16.879030227661133,0.003505638800561428,16.879030227661133,0.003505638800561428,16.879030227661133Z" fill="url(#master_svg3_128_04918)" fill-opacity="1"/></g><g><path d="M14.00000286102295,20.61829542766113C14.00000286102295,20.61829542766113,27.99647886102295,16.879030227661133,27.99647886102295,16.879030227661133C27.99647886102295,16.879030227661133,27.99647886102295,19.068988127661132,27.99647886102295,19.068988127661132C27.99647886102295,19.068988127661132,14.00000286102295,22.80825182766113,14.00000286102295,22.80825182766113C14.00000286102295,22.80825182766113,14.00000286102295,20.61829542766113,14.00000286102295,20.61829542766113C14.00000286102295,20.61829542766113,14.00000286102295,20.61829542766113,14.00000286102295,20.61829542766113Z" fill="url(#master_svg4_128_04921)" fill-opacity="1"/></g><g transform="matrix(0.638505756855011,0.7696170806884766,-0.638505756855011,0.7696170806884766,5.060920438273172,-10.774641331530802)"><path d="M22.53439996102295,8.5343971C22.53439996102295,8.5343971,35.92619386102295,0,35.92619386102295,0C35.92619386102295,0,27.39179486102295,13.391792,27.39179486102295,13.391792C27.39179486102295,13.391792,14.00000286102295,21.926191,14.00000286102295,21.926191C14.00000286102295,21.926191,22.53439996102295,8.5343971,22.53439996102295,8.5343971C22.53439996102295,8.5343971,22.53439996102295,8.5343971,22.53439996102295,8.5343971Z" fill="url(#master_svg5_182_33012)" fill-opacity="1"/></g></g></g></svg>