<svg xmlns="http://www.w3.org/2000/svg" xmlns:xlink="http://www.w3.org/1999/xlink" fill="none" version="1.1" width="176.00001525878906" height="65" viewBox="0 0 176.00001525878906 65"><defs><linearGradient x1="0.5" y1="0" x2="0.5" y2="1" id="master_svg0_182_12152"><stop offset="7.14285746216774%" stop-color="#83C7FF" stop-opacity="0"/><stop offset="50%" stop-color="#83C7FF" stop-opacity="0.25999999046325684"/><stop offset="100%" stop-color="#83C7FF" stop-opacity="1"/></linearGradient><linearGradient x1="0" y1="0" x2="0" y2="1" id="master_svg1_182_11782"><stop offset="32.14285671710968%" stop-color="#00DDFF" stop-opacity="0"/><stop offset="100%" stop-color="#29BBFF" stop-opacity="0.9399999976158142"/></linearGradient><linearGradient x1="0.5" y1="0" x2="0.5" y2="1" id="master_svg2_182_14118"><stop offset="0%" stop-color="#009BFC" stop-opacity="0"/><stop offset="100%" stop-color="#0064CE" stop-opacity="1"/></linearGradient><linearGradient x1="0.5" y1="0" x2="0.5" y2="1" id="master_svg3_178_15019"><stop offset="0%" stop-color="#0B4584" stop-opacity="0.6899999976158142"/><stop offset="100%" stop-color="#56B8FF" stop-opacity="0.7300000190734863"/></linearGradient><linearGradient x1="0.5" y1="0" x2="0.5" y2="1" id="master_svg4_182_12910"><stop offset="23.571428656578064%" stop-color="#C2E0FF" stop-opacity="0"/><stop offset="100%" stop-color="#9FD7FF" stop-opacity="1"/></linearGradient><linearGradient x1="0.5" y1="0" x2="0.5" y2="1" id="master_svg5_182_14279"><stop offset="0%" stop-color="#83C7FF" stop-opacity="0"/><stop offset="100%" stop-color="#41A9FF" stop-opacity="0.25882354378700256"/></linearGradient></defs><g><g><path d="M145.670292171875,4.2764144e-15L171.936596171875,15.046295L171.936596171875,45.138885L145.670292171875,60.185181L119.403987871875,45.138885L119.403987371875,15.046297L145.670292171875,4.2764144e-15Z" fill="url(#master_svg0_182_12152)" fill-opacity="1"/><path d="M171.936596171875,15.046295L145.670292171875,0L119.403987371875,15.046297L119.403987871875,45.138885L145.670292171875,60.185181L171.936596171875,45.138885L171.936596171875,15.046295ZM170.936596171875,15.625909L145.670292171875,1.1524498L120.403987371875,15.625912L120.403987871875,44.559269L145.670292171875,59.03273L170.936596171875,44.559269L170.936596171875,15.625909Z" fill-rule="evenodd" fill="url(#master_svg1_182_11782)" fill-opacity="1"/></g><g><g><path d="M119.33132934570312,50.200362760620116L146.28641534570312,64.99999976062011L172.0092663457031,50.200362760620116L146.28641534570312,34.90740776062012L119.33132934570312,50.200362760620116Z" fill="url(#master_svg2_182_14118)" fill-opacity="1"/></g><g><path d="M119.33132934570312,45.18493040283203L146.28641534570312,59.98456740283203L172.0092663457031,45.18493040283203L146.28641534570312,29.89197540283203L119.33132934570312,45.18493040283203Z" fill="url(#master_svg3_178_15019)" fill-opacity="1"/></g><g><path d="M119.33132934570312,40.169498045043945L146.28641534570312,54.96913504504394L172.0092663457031,40.169498045043945L146.28641534570312,24.876543045043945L119.33132934570312,40.169498045043945Z" fill="url(#master_svg4_182_12910)" fill-opacity="1"/></g></g><g transform="matrix(-0.8586412072181702,0.5125770568847656,-0.508503258228302,-0.8610600233078003,340.66321333416795,-5.619512609704088)"><line x1="171.2111053466797" y1="43.635799407958984" x2="200.95672035217285" y2="43.635799407958984" fill-opacity="0" stroke-opacity="1" stroke="#9FD7FF" fill="none" stroke-width="1"/></g><g><rect x="0" y="11.214506149291992" width="119.64432525634766" height="32.78086471557617" rx="0" fill="url(#master_svg5_182_14279)" fill-opacity="1"/><path d="M119.64433,43.99537114929199L119.64433,42.99537114929199L0,42.99537114929199L0,43.99537114929199L119.64433,43.99537114929199Z" fill-rule="evenodd" fill="#9FD7FF" fill-opacity="1"/></g></g></svg>