<svg xmlns="http://www.w3.org/2000/svg" xmlns:xlink="http://www.w3.org/1999/xlink" fill="none" version="1.1" width="365.5" height="37.00010681152344" viewBox="0 0 365.5 37.00010681152344"><defs><linearGradient x1="0.5" y1="0" x2="0.5" y2="1" id="master_svg0_178_12499"><stop offset="0%" stop-color="#204B5E" stop-opacity="0"/><stop offset="100%" stop-color="#4EA2C8" stop-opacity="1"/></linearGradient><linearGradient x1="0.5" y1="0" x2="0.5" y2="1" id="master_svg1_178_12731"><stop offset="0%" stop-color="#94E7FF" stop-opacity="1"/><stop offset="100%" stop-color="#94E7FF" stop-opacity="0"/></linearGradient></defs><g transform="matrix(-1,0,0,1,731,0)"><g transform="matrix(-1,0,0,1,1462,0)"><path d="M731,0L754,31L1095.5,31L1075.5,0L731,0Z" fill="url(#master_svg0_178_12499)" fill-opacity="0.4000000059604645"/></g><g><path d="M367,31.782715L704.15247,31.78261L719.5,12.5L718.0822800000001,12.5L703.44366,30.478262L367,30.478027L367,31.782715Z" fill="#599FCB" fill-opacity="1"/></g><g><path d="M366.5,33.08696740576172L366.5,34.39116640576172L706.12439,34.39130640576172L723,12.500053405761719L721.58032,12.500053405761719L705.41455,33.08695840576172L366.5,33.08696740576172Z" fill="#427B9D" fill-opacity="1"/></g><g><path d="M365.5,37.000106967773434L707.14459,37.000001967773436L727,12.217391967773438L725.58179,12.217391967773438L706.43542,35.69565396777344L365.5,35.695418967773435L365.5,37.000106967773434Z" fill="#2B4D61" fill-opacity="1"/></g><g><g><path d="M370,13.521739499999999L375,13.521739499999999L379,7L374,7L370,13.521739499999999Z" fill="#E9FEFF" fill-opacity="1"/></g><g><path d="M370,23.95679809375L375,23.95679809375L379,17.43505859375L374,17.43505859375L370,23.95679809375Z" fill="#21669C" fill-opacity="1"/></g><g><path d="M375,18.739280232910154L380,18.739280232910154L383,13.521888732910156L378,13.521888732910156L375,18.739280232910154Z" fill="#4AD0F6" fill-opacity="1"/></g></g><g transform="matrix(-1,0,0,1,1438,0)"><path d="M719,12L734.365853,31L740,31L724.6341462,12L719,12Z" fill="url(#master_svg1_178_12731)" fill-opacity="1"/></g><g transform="matrix(-1,0,0,1,1384,0)"><path d="M701.5,20L692,8L696,8L701.5,15L706.5,8L710.5,8L701.5,20ZM701.5,12L698.5,8L704.5,8L701.5,12Z" fill-rule="evenodd" fill="#CCF4FF" fill-opacity="1"/></g></g></svg>